<?xml version="1.0" encoding="UTF-8" standalone="no"?>
<!-- Created with Inkscape (http://www.inkscape.org/) -->

<svg
   width="1024px"
   height="1024px"
   viewBox="0 0 1024 1024"
   version="1.1"
   id="SVGRoot"
   sodipodi:docname="black_royal_queen.svg"
   inkscape:version="1.1.2 (b8e25be833, 2022-02-05)"
   xmlns:inkscape="http://www.inkscape.org/namespaces/inkscape"
   xmlns:sodipodi="http://sodipodi.sourceforge.net/DTD/sodipodi-0.dtd"
   xmlns="http://www.w3.org/2000/svg"
   xmlns:svg="http://www.w3.org/2000/svg">
  <sodipodi:namedview
     id="namedview23"
     pagecolor="#505050"
     bordercolor="#eeeeee"
     borderopacity="1"
     inkscape:pageshadow="0"
     inkscape:pageopacity="0"
     inkscape:pagecheckerboard="0"
     inkscape:document-units="px"
     showgrid="false"
     inkscape:zoom="1"
     inkscape:cx="427.5"
     inkscape:cy="547"
     inkscape:window-width="2560"
     inkscape:window-height="1334"
     inkscape:window-x="-11"
     inkscape:window-y="-11"
     inkscape:window-maximized="1"
     inkscape:current-layer="SVGRoot"
     showguides="true"
     inkscape:guide-bbox="true">
    <sodipodi:guide
       position="453.89398,896"
       orientation="0,1"
       id="guide51"
       inkscape:label=""
       inkscape:locked="true"
       inkscape:color="rgb(0,0,255)" />
    <sodipodi:guide
       position="464.18053,128"
       orientation="0,1"
       id="guide53"
       inkscape:label=""
       inkscape:locked="true"
       inkscape:color="rgb(0,0,255)" />
    <sodipodi:guide
       position="128,572.67765"
       orientation="-1,0"
       id="guide91"
       inkscape:label=""
       inkscape:locked="true"
       inkscape:color="rgb(0,0,255)" />
    <sodipodi:guide
       position="896,620.25294"
       orientation="-1,0"
       id="guide93"
       inkscape:label=""
       inkscape:locked="true"
       inkscape:color="rgb(0,0,255)" />
    <sodipodi:guide
       position="512,625.39622"
       orientation="-1,0"
       id="guide113"
       inkscape:label=""
       inkscape:locked="true"
       inkscape:color="rgb(0,0,255)" />
    <sodipodi:guide
       position="312,1084"
       orientation="1,0"
       id="guide17357" />
  </sodipodi:namedview>
  <defs
     id="defs18" />
  <path
     id="path1396"
     style="fill:#5a5a5a;fill-opacity:1;stroke:#2e2e2e;stroke-width:20;stroke-linecap:butt;stroke-linejoin:miter;stroke-miterlimit:4;stroke-dasharray:none;stroke-opacity:1"
     d="m 512,128 c -24.85611,5e-5 -45.00592,20.65879 -45.00586,46.14258 0.0253,20.80044 13.62165,39.01204 33.19922,44.46875 L 456.74804,456.00977 355.76171,262.83985 c 14.29113,-8.10128 23.18078,-23.50364 23.22852,-40.2461 6e-5,-25.48379 -20.14975,-46.14252 -45.00586,-46.14257 -24.85611,5e-5 -45.00592,20.65878 -45.00586,46.14257 0.0271,23.26595 16.94459,42.87186 39.46485,45.73633 L 339.03125,491.41016 213.0039,341.66407 c 7.20707,-8.41261 11.18466,-19.22499 11.19141,-30.42188 6e-5,-25.48379 -20.14975,-46.14253 -45.00586,-46.14258 -24.85611,5e-5 -45.00592,20.65879 -45.00586,46.14258 -6e-5,25.48379 24.50913,45.41859 37.66756,47.97468 0,0 1.50025,0.24597 4.18949,0.5691 l 95.42581,378.68185 240.15464,19.12986 v -6.81055 l 241.7214,-11.3725 86.02079,-389.18414 c 1.55624,0.19827 3.12153,0.31301 4.68945,0.34375 24.85611,-5e-5 45.00592,-20.65879 45.00586,-46.14258 6e-5,-25.48379 -20.14975,-46.14252 -45.00586,-46.14257 -24.85611,5e-5 -45.00592,20.65878 -45.00586,46.14257 0.007,11.19689 3.98434,22.00927 11.19141,30.42188 L 684.21093,484.59961 694.79882,261.51954 c 22.52026,-2.86447 39.43776,-22.47038 39.46485,-45.73633 6e-5,-25.48379 -20.14975,-46.14253 -45.00586,-46.14258 -24.85611,5e-5 -45.00592,20.65879 -45.00586,46.14258 0.0477,16.74245 8.9374,32.14481 23.22852,40.24609 L 566.49414,449.19922 524.27539,218.50586 c 19.35493,-5.62571 32.71754,-23.73756 32.73047,-44.36328 C 557.00592,148.65879 536.85611,128.00005 512,128 Z"
     sodipodi:nodetypes="scccccccccccccccccccccsscccccscccccs" />
  <path
     style="fill:#828282;fill-opacity:1;stroke:#000000;stroke-width:0;stroke-linecap:butt;stroke-linejoin:miter;stroke-miterlimit:4;stroke-dasharray:none;stroke-opacity:1"
     d="m 671.19354,184.78621 c -8.90779,6.18323 -16.1643,14.67087 -16.65625,33.78516 1.45397,16.14689 10.0781,22.88096 15.22656,27.16406 -14.64321,-20.71758 -12.17816,-41.6442 1.42969,-60.94922 z"
     id="path14485-1"
     sodipodi:nodetypes="cccc" />
  <path
     style="fill:#828282;fill-opacity:1;stroke:#000000;stroke-width:0;stroke-linecap:butt;stroke-linejoin:miter;stroke-miterlimit:4;stroke-dasharray:none;stroke-opacity:1"
     d="m 826.7989,273.02377 c -8.90779,6.18323 -18.31827,11.37504 -17.7611,32.0174 0.13429,15.22833 9.01969,25.0695 14.18041,29.34474 -14.64321,-20.71758 -10.02716,-42.05712 3.58069,-61.36214 z"
     id="path14485-1-5"
     sodipodi:nodetypes="cccc" />
  <g
     inkscape:label="Layer 1"
     inkscape:groupmode="layer"
     id="layer1">
    <path
       id="path94"
       style="fill:#5a5a5a;fill-opacity:1;stroke:#2e2e2e;stroke-width:20;stroke-linecap:butt;stroke-linejoin:miter;stroke-miterlimit:4;stroke-dasharray:none;stroke-opacity:1"
       d="m 482.09679,720.74898 c -78.80922,0.61589 -209.09575,7.14272 -231.69736,27.40055 -35.35311,34.21111 -41.44091,73.98955 -40.84123,148.29454 h 297.38816 5.31051 4.90513 297.79354 C 815.55522,822.13908 809.46742,782.36064 774.11431,748.14953 748.80902,725.4684 589.05928,720.04341 517.162,720.81252 v -0.0461 h -10.21564 v 0.0433 c -7.59018,-0.0787 -15.57348,-0.13323 -24.84957,-0.0606 z" />
    <g
       transform="matrix(0.01759076,0,0,-0.02089958,372.15206,708.61488)"
       fill="#000000"
       stroke="none"
       id="g33983"
       style="fill:none;stroke:#2e2e2e;stroke-width:521.54155681;stroke-miterlimit:4;stroke-dasharray:none;stroke-opacity:1">
      <path
         d="m 7810,10879 c -229,-124 -411,-301 -507,-494 -75,-148 -112,-347 -93,-504 5,-46 7,-87 5,-91 -2,-4 -30,-3 -62,2 -159,26 -332,-29 -443,-141 -129,-129 -197,-332 -171,-508 10,-66 60,-203 74,-203 3,0 45,16 95,35 244,94 393,57 514,-129 47,-73 93,-212 118,-360 35,-210 50,-575 33,-875 l -6,-123 -401,5 c -306,3 -427,8 -509,21 -330,51 -516,145 -584,292 -23,52 -25,65 -21,158 4,85 11,116 41,196 42,109 44,104 -52,142 -77,29 -239,36 -336,14 -265,-62 -429,-261 -429,-521 0,-49 3,-102 7,-116 l 6,-25 -143,4 c -163,5 -259,-10 -387,-59 -226,-87 -429,-282 -567,-543 -55,-103 -55,-133 0,-239 123,-237 313,-426 526,-524 136,-63 206,-77 399,-77 l 172,-1 -7,-25 c -3,-14 -6,-68 -6,-120 2,-157 51,-268 166,-375 71,-66 153,-109 256,-136 82,-21 210,-25 281,-8 46,10 151,58 151,68 0,4 -14,40 -31,80 -84,199 -66,370 48,471 186,163 555,232 1167,216 137,-3 250,-7 252,-8 1,-2 7,-581 13,-1288 12,-1342 10,-1435 -29,-1666 -48,-279 -144,-453 -285,-515 -89,-40 -222,-28 -369,33 -38,16 -73,25 -77,21 -18,-19 -58,-113 -68,-161 -45,-216 67,-494 245,-608 101,-65 249,-95 369,-76 33,6 61,9 62,8 0,0 -4,-43 -9,-95 -23,-203 31,-422 149,-605 117,-183 450,-436 573,-436 133,0 477,271 594,467 102,173 151,394 129,578 -6,50 -10,91 -10,91 1,1 31,-3 67,-8 122,-17 265,12 362,74 146,92 257,309 258,500 0,93 -31,208 -72,261 -13,17 -15,17 -60,-2 -169,-72 -314,-84 -411,-35 -129,67 -221,242 -267,508 -38,226 -40,335 -29,1671 6,704 12,1281 14,1283 9,10 530,13 679,3 394,-26 619,-94 752,-226 70,-70 88,-126 82,-254 -4,-80 -11,-112 -42,-190 -20,-52 -35,-95 -34,-97 2,-1 26,-14 53,-28 185,-92 472,-44 633,107 113,107 165,223 166,377 0,52 -3,107 -7,122 l -7,26 138,-5 c 223,-8 389,37 570,157 192,126 432,443 432,569 0,96 -183,364 -335,493 -202,170 -390,234 -661,226 l -143,-4 6,25 c 4,14 7,67 7,116 0,323 -253,547 -604,533 -76,-3 -120,-11 -161,-26 -94,-37 -94,-37 -64,-110 63,-156 74,-293 31,-387 -67,-146 -254,-240 -583,-291 -83,-13 -200,-18 -509,-21 l -402,-5 -7,159 c -10,216 0,643 20,783 71,520 278,694 644,541 41,-17 77,-31 81,-31 12,0 58,112 71,170 28,130 -12,327 -90,447 -120,184 -296,259 -541,233 l -45,-5 5,40 c 12,98 2,300 -19,378 -26,98 -88,231 -145,311 -92,129 -289,293 -452,375 -86,44 -129,42 -224,-10 z m 227,-135 c 119,-68 230,-160 306,-254 82,-103 128,-189 162,-305 23,-77 27,-108 27,-220 0,-112 -4,-146 -30,-245 -16,-63 -29,-116 -27,-117 1,-2 35,8 76,22 108,38 154,46 244,46 219,0 371,-149 405,-395 9,-63 2,-157 -12,-172 -3,-2 -24,3 -47,11 -23,8 -80,20 -127,27 -254,37 -447,-102 -544,-392 -79,-234 -105,-523 -94,-1037 4,-177 10,-326 13,-332 10,-16 628,-25 821,-12 404,28 655,104 809,247 132,122 169,292 110,505 -11,39 -17,74 -14,78 12,12 163,13 217,2 137,-29 263,-122 314,-234 27,-58 29,-70 28,-182 0,-107 -3,-130 -31,-212 -19,-58 -27,-93 -19,-93 6,0 52,12 101,26 180,50 391,42 548,-22 136,-55 289,-173 383,-295 67,-87 144,-221 144,-251 0,-28 -50,-122 -107,-203 -170,-238 -375,-366 -631,-395 -105,-12 -234,1 -358,35 -49,13 -89,23 -91,22 -1,-2 12,-45 29,-97 29,-85 32,-108 32,-215 1,-116 0,-123 -32,-187 -55,-113 -169,-192 -322,-224 -74,-15 -194,-12 -205,5 -2,5 5,39 16,77 31,101 31,258 0,336 -93,239 -368,367 -870,407 -151,12 -536,14 -744,4 l -137,-6 v -741 c -1,-408 -5,-979 -9,-1271 -11,-683 -2,-892 50,-1143 96,-467 337,-656 704,-553 38,11 72,17 75,14 3,-2 5,-55 5,-116 -1,-91 -5,-123 -23,-172 -47,-125 -142,-224 -254,-261 -80,-26 -238,-16 -353,24 -49,17 -91,29 -93,28 -1,-2 9,-45 24,-97 38,-136 44,-330 15,-451 -37,-158 -106,-276 -239,-412 -102,-104 -287,-226 -343,-226 -27,0 -154,71 -234,130 -69,51 -183,172 -234,248 -54,80 -94,176 -116,276 -25,113 -16,306 19,435 15,52 25,95 24,96 -2,2 -43,-11 -93,-27 -117,-39 -274,-50 -353,-24 -111,37 -209,139 -255,264 -16,45 -21,81 -21,169 -1,61 1,114 4,116 3,3 37,-3 75,-14 194,-55 354,-28 477,80 93,82 166,222 212,407 65,261 78,500 66,1224 -5,300 -10,872 -10,1271 l -1,726 -136,6 c -208,10 -593,8 -744,-4 -513,-40 -790,-174 -876,-421 -25,-73 -22,-228 5,-323 11,-38 19,-72 16,-76 -10,-17 -133,-20 -204,-5 -153,32 -267,111 -322,224 -32,64 -33,71 -32,187 0,107 3,130 32,215 17,52 30,95 29,97 -2,1 -43,-9 -92,-22 -432,-119 -803,41 -1045,451 -28,47 -50,97 -50,113 0,30 74,159 144,250 94,122 247,240 383,295 157,64 368,72 548,22 50,-14 95,-26 101,-26 8,0 0,35 -19,93 -27,82 -31,106 -31,212 -1,112 1,124 28,182 51,112 177,205 314,234 54,11 205,10 217,-2 3,-4 -3,-39 -15,-80 -83,-302 29,-517 336,-640 232,-93 539,-126 1074,-115 178,4 326,9 330,12 11,11 12,770 0,894 -33,371 -111,610 -243,744 -69,71 -118,99 -210,122 -76,20 -189,14 -292,-15 -38,-11 -72,-18 -74,-15 -2,2 -6,39 -9,81 -8,142 38,272 130,369 116,123 283,148 506,76 50,-16 92,-26 92,-22 0,5 -12,52 -27,107 -24,85 -27,117 -28,243 0,122 4,158 23,223 66,230 227,420 480,568 37,22 78,39 92,39 14,0 62,-21 107,-46 z"
         id="path33981"
         style="fill:none;stroke:#2e2e2e;stroke-width:521.54155681;stroke-miterlimit:4;stroke-dasharray:none;stroke-opacity:1" />
    </g>
  </g>
  <path
     style="fill:#464646;fill-opacity:1;stroke:#000000;stroke-width:0;stroke-linecap:butt;stroke-linejoin:miter;stroke-miterlimit:4;stroke-dasharray:none;stroke-opacity:1"
     d="m 864.00767,274.62738 c 12.05729,7.88531 18.64184,21.33749 14.54346,41.03169 -7.94006,22.31189 -24.34164,27.45109 -45.68785,24.3214 L 746.43848,726.6448 C 706.32528,720.34864 611.92782,711.79237 566.9919,711.50208 631.37917,711.89216 710.05406,592.8742 718.57595,576.94163 l 111.787,-241.96182 c 33.26662,-11.61362 42.79623,-32.4571 33.64472,-60.35243 z"
     id="path5022"
     sodipodi:nodetypes="cccccccc" />
  <path
     style="fill:#464646;fill-opacity:1;stroke:#000000;stroke-width:0;stroke-linecap:butt;stroke-linejoin:miter;stroke-miterlimit:4;stroke-dasharray:none;stroke-opacity:1"
     d="m 711.08426,187.70554 c 13.06205,9.36215 15.15345,21.97559 12.83821,35.57408 -3.81133,18.26551 -14.44449,28.47933 -38.32872,29.78679 l -7.12969,150.23929 4.25469,-150.4932 c 26.15252,-17.91586 34.8893,-38.4219 28.36551,-65.10696 z"
     id="path8000"
     sodipodi:nodetypes="cccccc" />
  <path
     style="fill:#464646;fill-opacity:1;stroke:#000000;stroke-width:0;stroke-linecap:butt;stroke-linejoin:miter;stroke-miterlimit:4;stroke-dasharray:none;stroke-opacity:1"
     d="m 514.66194,138.21306 c 22.6335,1.82103 30.3306,18.04025 32.47087,31.83382 1.83551,25.55579 -12.22278,37.24271 -33.92969,41.53125 L 548.3125,404.375 512,211.51942 c 31.72042,-27.26535 24.19609,-55.00982 2.66194,-73.30636 z"
     id="path9363"
     sodipodi:nodetypes="cccccc" />
  <path
     style="fill:#464646;fill-opacity:1;stroke:#000000;stroke-width:0;stroke-linecap:butt;stroke-linejoin:miter;stroke-miterlimit:4;stroke-dasharray:none;stroke-opacity:1"
     d="m 330.74919,186.76458 c 22.43269,-1.94374 31.71605,14.59293 33.32793,17.16944 11.00824,17.05215 4.60105,45.22211 -21.30711,55.22062 l 67.17514,127.27922 -71.80943,-127.25119 c 23.20086,-27.33053 21.63048,-56.00758 -7.5,-72.5625"
     id="path11676"
     sodipodi:nodetypes="cccccc"
     inkscape:label="path11676" />
  <path
     style="fill:#464646;fill-opacity:1;stroke:#000000;stroke-width:0;stroke-linecap:butt;stroke-linejoin:miter;stroke-miterlimit:4;stroke-dasharray:none;stroke-opacity:1"
     d="m 180.25552,274.99101 c 16.70419,0.3496 30.80179,12.18826 34.1236,29.4648 2.68454,13.71923 -2.83866,26.59718 -13.62912,37.29419 L 305.13802,465.7382 194,344.5 c 5.85841,-18.52015 14.70371,-55.92393 -13.74448,-69.50899 z"
     id="path12869"
     sodipodi:nodetypes="cccccc" />
  <path
     style="fill:#828282;fill-opacity:1;stroke:#000000;stroke-width:0;stroke-linecap:butt;stroke-linejoin:miter;stroke-miterlimit:4;stroke-dasharray:none;stroke-opacity:1"
     d="m 162,279.625 c -8.90779,6.18323 -17.19555,15.32321 -17.6875,34.4375 0.26374,15.40586 9.72518,22.15897 15.54289,26.91605 C 145.21218,320.26097 148.39215,298.93002 162,279.625 Z"
     id="path14485"
     sodipodi:nodetypes="cccc" />
  <path
     style="fill:#828282;fill-opacity:1;stroke:#000000;stroke-width:0;stroke-linecap:butt;stroke-linejoin:miter;stroke-miterlimit:4;stroke-dasharray:none;stroke-opacity:1"
     d="m 316.29874,190.7682 c -8.90779,6.18323 -17.17161,13.70005 -17.66356,32.81434 0.38712,15.52924 8.94583,23.41504 14.55806,27.96664 -14.64321,-20.71758 -10.50235,-41.47596 3.1055,-60.78098 z"
     id="path14485-3"
     sodipodi:nodetypes="cccc" />
  <path
     style="fill:#828282;fill-opacity:1;stroke:#000000;stroke-width:0;stroke-linecap:butt;stroke-linejoin:miter;stroke-miterlimit:4;stroke-dasharray:none;stroke-opacity:1"
     d="m 493.15735,144.09695 c -9.85353,7.32599 -15.99507,15.58617 -16.0625,34.1875 0.38712,15.52924 9.53252,21.107 15.14475,25.6586 -14.64321,-20.71758 -12.6901,-40.54108 0.91775,-59.8461 z"
     id="path14485-33"
     sodipodi:nodetypes="cccc" />
  <path
     style="fill:#828282;fill-opacity:1;stroke:#000000;stroke-width:0;stroke-linecap:butt;stroke-linejoin:miter;stroke-miterlimit:4;stroke-dasharray:none;stroke-opacity:1"
     d="M 254.11512,758.59745 C 425.74669,745.56179 601.53726,746.7897 771.18251,759.38126 758.74753,738.83376 623.56016,730.73534 512,730.70957 c -82.1966,-0.17641 -221.62094,4.30591 -257.88488,27.88788 z"
     id="path25951"
     sodipodi:nodetypes="cccc" />
</svg>
