<?xml version="1.0" encoding="UTF-8" standalone="no"?>
<!-- Created with Inkscape (http://www.inkscape.org/) -->

<svg
   width="1024px"
   height="1024px"
   viewBox="0 0 1024 1024"
   version="1.1"
   id="SVGRoot"
   sodipodi:docname="white_princess.svg"
   inkscape:version="1.1.2 (b8e25be833, 2022-02-05)"
   xmlns:inkscape="http://www.inkscape.org/namespaces/inkscape"
   xmlns:sodipodi="http://sodipodi.sourceforge.net/DTD/sodipodi-0.dtd"
   xmlns="http://www.w3.org/2000/svg"
   xmlns:svg="http://www.w3.org/2000/svg">
  <sodipodi:namedview
     id="namedview23"
     pagecolor="#505050"
     bordercolor="#eeeeee"
     borderopacity="1"
     inkscape:pageshadow="0"
     inkscape:pageopacity="0"
     inkscape:pagecheckerboard="0"
     inkscape:document-units="px"
     showgrid="false"
     inkscape:zoom="0.70710678"
     inkscape:cx="163.34167"
     inkscape:cy="591.14127"
     inkscape:window-width="2560"
     inkscape:window-height="1334"
     inkscape:window-x="-11"
     inkscape:window-y="-11"
     inkscape:window-maximized="1"
     inkscape:current-layer="SVGRoot"
     showguides="true"
     inkscape:guide-bbox="true">
    <sodipodi:guide
       position="453.89398,896"
       orientation="0,1"
       id="guide51"
       inkscape:label=""
       inkscape:locked="true"
       inkscape:color="rgb(0,0,255)" />
    <sodipodi:guide
       position="464.18053,128"
       orientation="0,1"
       id="guide53"
       inkscape:label=""
       inkscape:locked="true"
       inkscape:color="rgb(0,0,255)" />
    <sodipodi:guide
       position="128,572.67765"
       orientation="-1,0"
       id="guide91"
       inkscape:label=""
       inkscape:locked="true"
       inkscape:color="rgb(0,0,255)" />
    <sodipodi:guide
       position="896,620.25294"
       orientation="-1,0"
       id="guide93"
       inkscape:label=""
       inkscape:locked="true"
       inkscape:color="rgb(0,0,255)" />
    <sodipodi:guide
       position="512,625.39622"
       orientation="-1,0"
       id="guide113"
       inkscape:label=""
       inkscape:locked="true"
       inkscape:color="rgb(0,0,255)" />
    <sodipodi:guide
       position="312,1084"
       orientation="1,0"
       id="guide17357" />
    <sodipodi:guide
       position="580.88822,579.93694"
       orientation="0,-1"
       id="guide21186" />
  </sodipodi:namedview>
  <defs
     id="defs18" />
  <path
     id="path1396"
     style="fill:#f0f0f0;fill-opacity:1;stroke:#2e2e2e;stroke-width:20;stroke-linecap:butt;stroke-linejoin:miter;stroke-miterlimit:4;stroke-dasharray:none;stroke-opacity:1"
     d="M 512,452.47424 420.10843,214.04948 c 14.29113,-8.10128 23.18078,-23.50364 23.22852,-40.2461 6e-5,-25.48379 -20.14975,-46.14252 -45.00586,-46.14257 -24.85611,5e-5 -45.00592,20.65878 -45.00586,46.14257 0.0271,23.26595 16.94459,42.87186 39.46485,45.73633 L 363.77999,472.31828 219.36786,277.31735 c 7.20707,-8.41261 11.18466,-19.22499 11.19141,-30.42188 6e-5,-25.48379 -20.14975,-46.14253 -45.00586,-46.14258 -24.85611,5e-5 -45.00592,20.65879 -45.00586,46.14258 -6e-5,25.48379 22.57163,44.79359 35.73006,47.34968 0,0 3.43775,0.87097 6.12699,1.1941 l 89.06185,443.02857 240.15464,19.12986 v -6.81055 l 241.7214,-11.3725 81.77815,-447.87401 c 1.55624,0.19827 3.12153,0.31301 4.68945,0.34375 24.85611,-5e-5 45.00592,-20.65879 45.00586,-46.14258 6e-5,-25.48379 -20.14975,-46.14252 -45.00586,-46.14257 -24.85611,5e-5 -45.00592,20.65878 -45.00586,46.14257 0.007,11.19689 3.98434,22.00927 11.19141,30.42188 L 666.53326,471.51814 636.10896,220.50735 c 22.52026,-2.86447 39.43776,-22.47038 39.46485,-45.73633 6e-5,-25.48379 -20.14975,-46.14253 -45.00586,-46.14258 -24.85611,5e-5 -45.00592,20.65879 -45.00586,46.14258 0.0477,16.74245 8.9374,32.14481 23.22852,40.24609 z"
     sodipodi:nodetypes="cccccccccccccccccccsscccccsccc" />
  <path
     style="fill:#ffffff;fill-opacity:1;stroke:#000000;stroke-width:0;stroke-linecap:butt;stroke-linejoin:miter;stroke-miterlimit:4;stroke-dasharray:none;stroke-opacity:1"
     d="m 822.53481,214.16969 c -8.90779,6.18323 -18.31827,11.37504 -17.7611,32.0174 0.13429,15.22833 9.01969,25.0695 14.18041,29.34474 -14.64321,-20.71758 -10.02716,-42.05712 3.58069,-61.36214 z"
     id="path14485-1-5"
     sodipodi:nodetypes="cccc" />
  <path
     style="fill:#ffffff;fill-opacity:1;stroke:#000000;stroke-width:0;stroke-linecap:butt;stroke-linejoin:miter;stroke-miterlimit:4;stroke-dasharray:none;stroke-opacity:1"
     d="m 614.15799,142.796 c -8.90779,6.18324 -18.31827,11.37505 -17.7611,32.01741 0.13429,15.22833 9.01969,25.0695 14.18041,29.34474 -14.64321,-20.71758 -10.02716,-42.05712 3.58069,-61.36215 z"
     id="path14485-1-5-9"
     sodipodi:nodetypes="cccc" />
  <path
     style="fill:#ffffff;fill-opacity:1;stroke:#000000;stroke-width:0;stroke-linecap:butt;stroke-linejoin:miter;stroke-miterlimit:4;stroke-dasharray:none;stroke-opacity:1"
     d="m 381.51735,141.81893 c -9.10344,6.18323 -18.72061,11.37504 -18.15121,32.0174 0.13724,15.22833 9.2178,25.0695 14.49187,29.34474 -14.96483,-20.71758 -10.24739,-42.05712 3.65934,-61.36214 z"
     id="path14485-1-5-0"
     sodipodi:nodetypes="cccc" />
  <path
     style="fill:#ffffff;fill-opacity:1;stroke:#000000;stroke-width:0;stroke-linecap:butt;stroke-linejoin:miter;stroke-miterlimit:4;stroke-dasharray:none;stroke-opacity:1"
     d="m 168.42519,215.31151 c -8.90779,6.18323 -18.31827,11.37504 -17.7611,32.0174 0.13429,15.22833 9.01969,25.0695 14.18041,29.34474 -14.64321,-20.71758 -10.02716,-42.05712 3.58069,-61.36214 z"
     id="path14485-1-5-93"
     sodipodi:nodetypes="cccc" />
  <g
     inkscape:label="Layer 1"
     inkscape:groupmode="layer"
     id="layer1">
    <path
       id="path94"
       style="fill:#f0f0f0;fill-opacity:1;stroke:#2e2e2e;stroke-width:20;stroke-linecap:butt;stroke-linejoin:miter;stroke-miterlimit:4;stroke-dasharray:none;stroke-opacity:1"
       d="m 482.09679,720.74898 c -78.80922,0.61589 -209.09575,7.14272 -231.69736,27.40055 -35.35311,34.21111 -41.44091,73.98955 -40.84123,148.29454 h 297.38816 5.31051 4.90513 297.79354 C 815.55522,822.13908 809.46742,782.36064 774.11431,748.14953 748.80902,725.4684 589.05928,720.04341 517.162,720.81252 v -0.0461 h -10.21564 v 0.0433 c -7.59018,-0.0787 -15.57348,-0.13323 -24.84957,-0.0606 z" />
  </g>
  <path
     style="fill:#969696;fill-opacity:1;stroke:#000000;stroke-width:0;stroke-linecap:butt;stroke-linejoin:miter;stroke-miterlimit:4;stroke-dasharray:none;stroke-opacity:1"
     d="m 860.00767,216.62738 c 12.05729,7.88531 18.14184,18.83749 14.04346,38.53169 -7.80515,22.55273 -25.35366,31.66936 -47.18785,25.8214 l -80.4248,445.66433 c -40.1132,-6.29616 -134.51066,-14.85243 -179.44658,-15.14272 64.38727,0.39008 141.95125,-99.36747 151.58405,-134.56045 L 822.31288,278.18348 c 40.24675,-0.4454 49.41379,-29.55279 37.69479,-61.5561 z"
     id="path5022"
     sodipodi:nodetypes="cccccccc" />
  <path
     style="fill:#ffffff;fill-opacity:1;stroke:#000000;stroke-width:0;stroke-linecap:butt;stroke-linejoin:miter;stroke-miterlimit:4;stroke-dasharray:none;stroke-opacity:1"
     d="M 254.11512,758.59745 C 425.74669,745.56179 601.53726,746.7897 771.18251,759.38126 758.74753,738.83376 623.56016,730.73534 512,730.70957 c -82.1966,-0.17641 -221.62094,4.30591 -257.88488,27.88788 z"
     id="path25951"
     sodipodi:nodetypes="cccc" />
  <path
     style="fill:#969696;fill-opacity:1;stroke:#000000;stroke-width:0;stroke-linecap:butt;stroke-linejoin:miter;stroke-miterlimit:4;stroke-dasharray:none;stroke-opacity:1"
     d="m 636.04255,138.94648 c 15.67253,3.82529 29.64888,12.06943 29.57717,36.60534 -1.22208,15.40118 -5.34775,33.69656 -40.53548,36.58021 L 647.00271,406.93995 622.0291,210.26071 c 31.61089,-3.01622 43.01455,-56.38068 14.01345,-71.31423 z"
     id="path23611"
     sodipodi:nodetypes="cccccc" />
  <path
     style="fill:#969696;fill-opacity:1;stroke:#000000;stroke-width:0;stroke-linecap:butt;stroke-linejoin:miter;stroke-miterlimit:4;stroke-dasharray:none;stroke-opacity:1"
     d="m 404.2883,138.41615 c 10.37554,0.17688 29.21395,8.37433 29.87527,34.11791 -0.77725,19.94108 -12.28922,30.35608 -26.16296,37.65343 l 56.21499,146.01755 -59.9273,-145.664 c 22.02061,-14.37585 22.57701,-66.66795 0,-72.12489 z"
     id="path26851"
     sodipodi:nodetypes="cccccc" />
  <path
     style="fill:#969696;fill-opacity:1;stroke:#000000;stroke-width:0;stroke-linecap:butt;stroke-linejoin:miter;stroke-miterlimit:4;stroke-dasharray:none;stroke-opacity:1"
     d="m 184.37809,210.71782 c 7.13801,0.0687 26.82687,0.28034 35.29376,27.51467 3.81203,20.5119 -4.27031,28.99685 -12.99845,38.52659 L 306.53079,412.24325 196.75246,281.25172 c 19.98972,-24.70612 17.86722,-62.0695 -12.37437,-70.5339 z"
     id="path29450"
     sodipodi:nodetypes="cccccc" />
</svg>
